<svg xmlns="http://www.w3.org/2000/svg" viewBox="0 0 64 64">
  <rect width="64" height="64" rx="14" fill="#f8fafc"/>

  <path d="M16 10 h20 l14 14 v26 a4 4 0 0 1 -4 4 h-30 a4 4 0 0 1 -4 -4 v-36 a4 4 0 0 1 4 -4 z" fill="none" stroke="#cbd5e1" stroke-width="5" stroke-linejoin="round"/>
  
  <path d="M36 10 v10 a4 4 0 0 0 4 4 h10" fill="none" stroke="#cbd5e1" stroke-width="5" stroke-linejoin="round" stroke-linecap="round"/>

  <line x1="24" y1="26" x2="36" y2="26" stroke="#94a3b8" stroke-width="5" stroke-linecap="round"/>
  <line x1="24" y1="36" x2="28" y2="36" stroke="#94a3b8" stroke-width="5" stroke-linecap="round"/>

  <path d="M28 36 L42 36 M28 48 L42 48 M42 36 L42 48" fill="none" stroke="#e2e8f0" stroke-width="4" stroke-linecap="round" stroke-linejoin="round"/>

  <circle cx="42" cy="36" r="5" fill="#3b82f6"/> <circle cx="28" cy="48" r="5" fill="#f59e0b"/> <circle cx="42" cy="48" r="5" fill="#10b981"/> </svg>
